<mxfile host="Electron" modified="2024-05-30T18:15:53.622Z" agent="Mozilla/5.0 (X11; Linux x86_64) AppleWebKit/537.36 (KHTML, like Gecko) draw.io/23.0.2 Chrome/120.0.6099.109 Electron/28.1.0 Safari/537.36" etag="4kevWY37HycDE3eFdxhD" version="23.0.2" type="device">
  <diagram name="Page-1" id="j3qCCm04jqVtJrp6BmQj">
    <mxGraphModel dx="1405" dy="585" grid="1" gridSize="10" guides="1" tooltips="1" connect="1" arrows="1" fold="1" page="1" pageScale="1" pageWidth="850" pageHeight="1100" math="0" shadow="0">
      <root>
        <mxCell id="0" />
        <mxCell id="1" parent="0" />
        <mxCell id="OqAEaHel-mkE3mddJbjj-1" value="" style="rounded=0;whiteSpace=wrap;html=1;" vertex="1" parent="1">
          <mxGeometry x="200" y="160" width="200" height="240" as="geometry" />
        </mxCell>
        <mxCell id="OqAEaHel-mkE3mddJbjj-2" value="Motor" style="rounded=0;whiteSpace=wrap;html=1;" vertex="1" parent="1">
          <mxGeometry x="200" y="200" width="80" height="40" as="geometry" />
        </mxCell>
        <mxCell id="OqAEaHel-mkE3mddJbjj-3" value="Motor" style="rounded=0;whiteSpace=wrap;html=1;" vertex="1" parent="1">
          <mxGeometry x="320" y="200" width="80" height="40" as="geometry" />
        </mxCell>
        <mxCell id="OqAEaHel-mkE3mddJbjj-4" value="" style="rounded=0;whiteSpace=wrap;html=1;fillStyle=hatch;fillColor=#000000;" vertex="1" parent="1">
          <mxGeometry x="160" y="180" width="40" height="80" as="geometry" />
        </mxCell>
        <mxCell id="OqAEaHel-mkE3mddJbjj-5" value="" style="rounded=0;whiteSpace=wrap;html=1;fillStyle=hatch;fillColor=#000000;" vertex="1" parent="1">
          <mxGeometry x="400" y="180" width="40" height="80" as="geometry" />
        </mxCell>
        <mxCell id="OqAEaHel-mkE3mddJbjj-6" value="" style="ellipse;whiteSpace=wrap;html=1;aspect=fixed;fillStyle=auto;fillColor=none;" vertex="1" parent="1">
          <mxGeometry x="270" y="330" width="60" height="60" as="geometry" />
        </mxCell>
        <mxCell id="OqAEaHel-mkE3mddJbjj-7" value="" style="endArrow=classic;html=1;rounded=0;exitX=0.5;exitY=0;exitDx=0;exitDy=0;strokeWidth=2;" edge="1" parent="1" source="OqAEaHel-mkE3mddJbjj-4">
          <mxGeometry width="50" height="50" relative="1" as="geometry">
            <mxPoint x="330" y="360" as="sourcePoint" />
            <mxPoint x="180" y="40" as="targetPoint" />
          </mxGeometry>
        </mxCell>
        <mxCell id="OqAEaHel-mkE3mddJbjj-8" value="" style="endArrow=classic;html=1;rounded=0;exitX=0.5;exitY=0;exitDx=0;exitDy=0;strokeWidth=2;" edge="1" parent="1">
          <mxGeometry width="50" height="50" relative="1" as="geometry">
            <mxPoint x="419.8" y="180" as="sourcePoint" />
            <mxPoint x="419.8" y="120" as="targetPoint" />
          </mxGeometry>
        </mxCell>
        <mxCell id="OqAEaHel-mkE3mddJbjj-21" value="" style="endArrow=none;dashed=1;html=1;rounded=0;" edge="1" parent="1">
          <mxGeometry width="50" height="50" relative="1" as="geometry">
            <mxPoint x="120" y="220" as="sourcePoint" />
            <mxPoint x="480" y="220" as="targetPoint" />
          </mxGeometry>
        </mxCell>
        <mxCell id="OqAEaHel-mkE3mddJbjj-22" value="" style="endArrow=none;dashed=1;html=1;rounded=0;" edge="1" parent="1">
          <mxGeometry width="50" height="50" relative="1" as="geometry">
            <mxPoint x="300" y="10" as="sourcePoint" />
            <mxPoint x="300" y="440" as="targetPoint" />
          </mxGeometry>
        </mxCell>
        <mxCell id="OqAEaHel-mkE3mddJbjj-23" value="V&lt;sub&gt;r&lt;/sub&gt;" style="text;html=1;strokeColor=none;fillColor=none;align=center;verticalAlign=middle;whiteSpace=wrap;rounded=0;" vertex="1" parent="1">
          <mxGeometry x="420" y="140" width="30" height="20" as="geometry" />
        </mxCell>
        <mxCell id="OqAEaHel-mkE3mddJbjj-24" value="V&lt;span style=&quot;font-size: 10px;&quot;&gt;&lt;sub&gt;l&lt;/sub&gt;&lt;/span&gt;" style="text;html=1;strokeColor=none;fillColor=none;align=center;verticalAlign=middle;whiteSpace=wrap;rounded=0;" vertex="1" parent="1">
          <mxGeometry x="150" y="140" width="30" height="20" as="geometry" />
        </mxCell>
        <mxCell id="OqAEaHel-mkE3mddJbjj-28" value="" style="curved=1;endArrow=classic;html=1;rounded=0;strokeWidth=4;" edge="1" parent="1">
          <mxGeometry width="50" height="50" relative="1" as="geometry">
            <mxPoint x="300" y="220" as="sourcePoint" />
            <mxPoint x="360" y="40" as="targetPoint" />
            <Array as="points">
              <mxPoint x="300" y="120" />
              <mxPoint x="330" y="60" />
            </Array>
          </mxGeometry>
        </mxCell>
        <mxCell id="OqAEaHel-mkE3mddJbjj-30" value="V" style="text;html=1;strokeColor=none;fillColor=none;align=center;verticalAlign=middle;whiteSpace=wrap;rounded=0;" vertex="1" parent="1">
          <mxGeometry x="310" y="60" width="60" height="30" as="geometry" />
        </mxCell>
      </root>
    </mxGraphModel>
  </diagram>
</mxfile>
